<svg width="10" height="10" viewBox="0 0 10 10" fill="none" xmlns="http://www.w3.org/2000/svg">
<path d="M9.1976 6.56385C8.58536 6.56385 7.98422 6.4681 7.41456 6.27984C7.13542 6.18463 6.79227 6.27198 6.6219 6.44695L5.4975 7.29576C4.19352 6.59969 3.39029 5.79672 2.70372 4.50253L3.52755 3.40742C3.74159 3.19367 3.81836 2.88143 3.72638 2.58846C3.53732 2.01581 3.44128 1.41495 3.44128 0.802448C3.4413 0.359974 3.08133 0 2.63888 0H0.802422C0.359974 0 0 0.359974 0 0.802422C0 5.87404 4.12599 10 9.1976 10C9.64005 10 10 9.64003 10 9.19758V7.36625C10 6.92383 9.64003 6.56385 9.1976 6.56385Z" fill="#477D94"/>
</svg>
