<svg width="29" height="24" viewBox="0 0 29 24" fill="none" xmlns="http://www.w3.org/2000/svg">
<path d="M29 2.84123C27.9216 3.32308 26.7724 3.64246 25.5744 3.79754C26.8069 3.048 27.7476 1.87015 28.1898 0.450461C27.0407 1.14831 25.7719 1.64123 24.4198 1.91631C23.3287 0.732923 21.7736 0 20.0771 0C16.7856 0 14.1357 2.72123 14.1357 6.05723C14.1357 6.53723 14.1756 6.99877 14.2734 7.43815C9.33075 7.19262 4.95719 4.77969 2.01912 1.104C1.50619 2.01046 1.20531 3.048 1.20531 4.16492C1.20531 6.26215 2.26562 8.12123 3.84612 9.19754C2.89094 9.17908 1.95387 8.89662 1.16 8.45169C1.16 8.47015 1.16 8.49415 1.16 8.51815C1.16 11.4609 3.22081 13.9052 5.92325 14.4683C5.43931 14.6031 4.91187 14.6677 4.3645 14.6677C3.98387 14.6677 3.59962 14.6455 3.23894 14.5643C4.00925 16.9625 6.19513 18.7255 8.79425 18.7828C6.7715 20.3945 4.20319 21.3655 1.42281 21.3655C0.93525 21.3655 0.467625 21.3434 0 21.2825C2.63356 23.0123 5.75469 24 9.1205 24C20.0607 24 26.042 14.7692 26.042 6.768C26.042 6.50031 26.0329 6.24185 26.0202 5.98523C27.2002 5.13231 28.1916 4.06708 29 2.84123Z" fill="#477D94"/>
</svg>
