<svg width="8" height="10" viewBox="0 0 8 10" fill="none" xmlns="http://www.w3.org/2000/svg">
<path d="M3.9395 4.81701C4.57406 4.81701 5.12354 4.57966 5.57251 4.11137C6.02147 3.64316 6.24906 3.07027 6.24906 2.40843C6.24906 1.74681 6.02147 1.17385 5.57243 0.705485C5.1234 0.237349 4.57399 0 3.9395 0C3.30486 0 2.75553 0.237349 2.30656 0.705561C1.8576 1.17377 1.62994 1.74674 1.62994 2.40843C1.62994 3.07027 1.8576 3.64324 2.30664 4.11145C2.75567 4.57959 3.30508 4.81701 3.9395 4.81701Z" fill="#477D94"/>
<path d="M7.98061 7.68946C7.96766 7.4946 7.94147 7.28205 7.90292 7.05759C7.864 6.83146 7.81389 6.61769 7.7539 6.4223C7.69194 6.22035 7.60766 6.02092 7.50348 5.82981C7.39536 5.63144 7.26836 5.45871 7.12585 5.31658C6.97683 5.16788 6.79437 5.04833 6.58339 4.96113C6.37314 4.87438 6.14013 4.83044 5.89089 4.83044C5.793 4.83044 5.69834 4.87232 5.51552 4.99645C5.403 5.07298 5.27139 5.16148 5.12449 5.25936C4.99888 5.34283 4.82872 5.42103 4.61854 5.49183C4.41348 5.56102 4.20528 5.59612 3.99978 5.59612C3.79428 5.59612 3.58615 5.56102 3.38087 5.49183C3.17091 5.4211 3.00075 5.3429 2.87529 5.25944C2.72978 5.16247 2.59809 5.07397 2.4839 4.99638C2.3013 4.87225 2.20656 4.83036 2.10867 4.83036C1.85936 4.83036 1.62642 4.87438 1.41624 4.96121C1.20541 5.04826 1.02288 5.16781 0.873713 5.31666C0.731276 5.45887 0.604203 5.63152 0.496223 5.82981C0.392121 6.02092 0.307844 6.22028 0.245807 6.42238C0.185892 6.61776 0.135779 6.83146 0.0968597 7.05759C0.058306 7.28174 0.0321159 7.49437 0.0191671 7.68969C0.00643781 7.88103 0 8.07962 0 8.2802C0 8.8022 0.159116 9.22478 0.472886 9.53644C0.782779 9.84398 1.19282 10 1.69146 10H6.30854C6.80718 10 7.21708 9.84406 7.52704 9.53644C7.84088 9.22501 8 8.80235 8 8.28012C7.99993 8.07863 7.99342 7.87988 7.98061 7.68946Z" fill="#477D94"/>
</svg>
