<svg id="Layer_2" data-name="Layer 2" xmlns="http://www.w3.org/2000/svg" xmlns:xlink="http://www.w3.org/1999/xlink" viewBox="0 0 338.17 329.58"><defs><style>.cls-1{fill:none;}.cls-2{clip-path:url(#clip-path);}.cls-3{fill:#231f20;}.cls-4{fill:#7b7c7f;}</style><clipPath id="clip-path" transform="translate(-63.82 -85.21)"><rect class="cls-1" y="0.01" width="500" height="500"/></clipPath></defs><title>KF Logo</title><g class="cls-2"><path class="cls-3" d="M220.87,368a5,5,0,0,1-1.91,3.85,7.27,7.27,0,0,1-4.62,1.59H147.16l-7.4-10.87L63.82,251.08l30.91-41.66,61.51-82.9,0,0v0h29a4.84,4.84,0,0,1,4.84,4.84,4.85,4.85,0,0,1-4.84,4.84H160.45l-60.26,81.23L199,362.61h15.31C217.94,362.61,220.87,365,220.87,368Z" transform="translate(-63.82 -85.21)"/><rect class="cls-3" x="181.46" width="9.44" height="329.58" rx="4.72" ry="4.72"/><path class="cls-3" d="M402,126.47v79.39a4.84,4.84,0,0,1-9.68,0V195.05a68.49,68.49,0,0,0-.36-8.83c-.16-1.25-.36-2.49-.6-3.73a59.8,59.8,0,0,0-4.56-14,60.6,60.6,0,0,0-7.69-12.26,61.42,61.42,0,0,0-4.87-5.32,59.93,59.93,0,0,0-5.48-4.71c-6.55-5-13.89-8.52-22.11-9.55s-16.55-.47-24.76-.47h-31v-9.68Z" transform="translate(-63.82 -85.21)"/><path class="cls-3" d="M357.8,246.59v68.5a5,5,0,1,1-10,0V298s0-18.83-13.56-31.33c-6.33-5.84-14.87-8.72-23.31-9.59a118.22,118.22,0,0,0-12.2-.24H291V246.59Z" transform="translate(-63.82 -85.21)"/><path class="cls-4" d="M307.69,256.84h-3.62A34.3,34.3,0,0,1,307.69,256.84Z" transform="translate(-63.82 -85.21)"/><path class="cls-4" d="M307.69,256.84h-3.62A34.3,34.3,0,0,1,307.69,256.84Z" transform="translate(-63.82 -85.21)"/></g></svg>