<svg width="7" height="11" viewBox="0 0 7 11" fill="none" xmlns="http://www.w3.org/2000/svg">
<path d="M6.5138 1.74326C5.89598 0.677075 4.79861 0.0256984 3.57832 0.000805249C3.52622 -0.000268416 3.47379 -0.000268416 3.42168 0.000805249C2.2014 0.0256984 1.10403 0.677075 0.486199 1.74326C-0.145314 2.83307 -0.162592 4.14215 0.439972 5.24506L2.96434 9.86554C2.96547 9.86759 2.9666 9.86964 2.96778 9.87166C3.07884 10.0647 3.27781 10.1799 3.50004 10.1799C3.72225 10.1799 3.92121 10.0647 4.03226 9.87166C4.03343 9.86964 4.03456 9.86759 4.0357 9.86554L6.56006 5.24506C7.16259 4.14215 7.14531 2.83307 6.5138 1.74326V1.74326ZM3.5 4.61279C2.71063 4.61279 2.06844 3.9706 2.06844 3.18124C2.06844 2.39188 2.71063 1.74969 3.5 1.74969C4.28936 1.74969 4.93155 2.39188 4.93155 3.18124C4.93155 3.9706 4.28938 4.61279 3.5 4.61279Z" fill="#477D94"/>
</svg>
