<?xml version="1.0" encoding="UTF-8"?>
<svg id="Layer_2" data-name="Layer 2" xmlns="http://www.w3.org/2000/svg" viewBox="0 0 354.77 102.2">
  <g id="Layer_1-2" data-name="Layer 1">
    <g>
      <path d="m39.21,61.65s2.14.61,1.14-1.09c0,0-2.59-1.68-3.29-3.52,0,0-.97-3.27,1.12-8.48,0,0,4.71-11.6,10.63-18.27,0,0,7.04-9.29,15.21-11.85,0,0,5.31-1.74,6.48,3.06,0,0,2.18,6.23-2.12,17.9,0,0-4.49,15.84-8.54,22.07,0,0-3.24,7.54-7.92,13.84,0,0-4.93,6.67-11.04,9.17,0,0-9.42,3.99-10.79-4.18,0,0-.44-6.55,5.3-11.35,0,0,5.24-6.05,16.4-3.62,0,0,2.29-.09.19-1.25,0,0-2.58-1.92-10.11-.4-.28.06-1.87.45-1.87.45-1.86.55-7.1,3.33-10.28,8.67,0,0-4.93,9.35,2.25,13.22,0,0,11.72,5.61,24.07-12.97,0,0,8.56-12.45,13.8-32.82,0,0,3.74-8.48,2.24-20.78,0,0-1.12-4.2-7.82-3.08,0,0-7.9,1-17.13,12.64,0,0-7.57,7.25-10.75,19.38,0,0-1.97,6.23-.31,9.38,0,0,1,2.66,3.12,3.87" fill="#9d7d34"/>
      <path d="m2.3,52.79s-1.31-14.84,8.11-28.87C19.82,9.89,33.93,4.15,44.08,2.99c0,0,24.03-1.75,37.16,12.22,0,0,13.63,10.98,14.96,31.92,0,0,1.41,17.96-8.9,31.51,0,0-5.24,6.48-9.46,9.27,0,0,6.26-3.08,9.44-7.57,0,0-.75,2.12-3.93,5.18,0,0-4.49,4.8-11.29,8.42l-1.37.75s1.25.06,6.24-3.18c0,0-4.93,4.05-8.98,5.05,0,0,12.66-4.18,21.32-16.46,0,0,7.34-11.6,9.42-23.99,0,0,1-4.45-.91-15.01,0,0-1.29-8.27-6.53-16.84,0,0-2.91-4.95-4.45-6.23,0,0,6.24,5.61,10.02,17.96,0,0,2.02,6.85,1.95,9.27,0,0,1.08,0-2-11.39,0,0,2.37,4.82,2.58,11.93,0,0,.58,8.11-.67,13.72,0,0-3.51,16.07-8.6,20.91,0,0-8.6,11.56-17.25,15.13,0,0-6.49,3.58-14.68,4.82,0,0-6.11.87-14.8.25,0,0,3.12.83,13.84.5,0,0,8.02-1.74,12.8-3.62,0,0-7.11,4.07-19.46,4.41h-.66s2.87,1.25,14.38-1.62c0,0,6.9-1.12,16.79-8.36,0,0,10.85-8.52,15.17-19.41,0,0,6.53-10.77,3.95-29.81,0,0-5.16-23.17-18.42-31.96-.63-.41-3.85-2.62-4.48-3.02-3.74-2.42-14.49-9.87-35.03-7.16-2.42.32-4.23.75-7.09,1.67-6.04,1.94-17.68,7.72-24.61,17.36,0,0-6.52,8.9-8.33,16.13,0,0-2.49,6.57-2.21,18.95,0,0-.41-15.5,4.52-23.29,0,0-4.93,15.59-3.62,20.39,0,0,1.68-16.71,5.74-23.13,0,0-6.55,17.02-4.36,24.13" fill="#9d7d34"/>
      <path d="m40.96,100.68s-26.4-5.03-36.79-29.99" fill="none" stroke="#9d7d34" stroke-miterlimit="10" stroke-width=".46"/>
      <path d="m44.82,99.6s-12.22-.91-25.02-10.56" fill="none" stroke="#9d7d34" stroke-miterlimit="10" stroke-width=".46"/>
      <path d="m62.7,95.86s2.66-.33,4.49-1.54" fill="none" stroke="#9d7d34" stroke-miterlimit="10" stroke-width=".46"/>
      <line x1="49.31" y1="97.44" x2="52.31" y2="97.44" fill="none" stroke="#9d7d34" stroke-miterlimit="10" stroke-width=".46"/>
      <path d="m26.95,90.79s1.66,1.91,3.41,2.16" fill="none" stroke="#9d7d34" stroke-miterlimit="10" stroke-width=".46"/>
    </g>
    <g>
      <path d="m130.79,20.34v40.62h-5.54V20.34h5.54Z" fill="#9d7d34"/>
      <path d="m149.21,60.93V20.34h5.02l19.3,31.4-.65.73V20.34h5.48v40.59h-5.08l-19.25-30.92.65-.73v31.65h-5.48Z" fill="#9d7d34"/>
      <path d="m188.1,25.76v-5.42h27.86v5.42h-27.86Zm11.16,35.2V23.67h5.54v37.29h-5.54Z" fill="#9d7d34"/>
      <path d="m224.45,60.96V20.34h5.54v40.62h-5.54Zm2.69-35.2v-5.42h22.67v5.42h-22.67Zm0,17.74v-5.42h19.68v5.42h-19.68Zm0,17.46v-5.42h22.67v5.42h-22.67Z" fill="#9d7d34"/>
      <path d="m260.76,60.96V20.32h5.54v40.64h-5.54Zm2.42-17.18v-5.42h13.47c1.61,0,2.91-.58,3.88-1.73s1.47-2.68,1.47-4.58-.49-3.43-1.47-4.58c-.98-1.15-2.27-1.73-3.88-1.73h-13.47v-5.42h13.25c2.3,0,4.31.49,6.03,1.47,1.72.98,3.05,2.34,4.01,4.09.95,1.75,1.42,3.81,1.42,6.17s-.48,4.4-1.44,6.16c-.96,1.76-2.29,3.13-4.01,4.11-1.71.98-3.72,1.47-6.01,1.47h-13.25Zm19.79,17.18l-9.04-18.44,5.51-1.29,10.1,19.72h-6.57Z" fill="#9d7d34"/>
      <path d="m305.16,20.34v40.62h-5.54V20.34h5.54Z" fill="#9d7d34"/>
      <path d="m319.79,60.96l14.55-40.62h4.72l14.55,40.62h-5.97l-10.94-32.77-10.94,32.77h-5.97Zm6.71-8.91v-5.42h20.77v5.42h-20.77Z" fill="#9d7d34"/>
      <path d="m124.61,72.11v-1.03h5.78v1.03h-2.35v9.51h-1.07v-9.51h-2.35Z" fill="#191919"/>
      <path d="m133.01,71.07h6.04v1.03h-4.99v3.3h4.94v1.03h-4.94v4.14h4.94v1.03h-6v-10.54Z" fill="#191919"/>
      <path d="m151.34,73.03l-.83.64c-.46-.6-1.01-1.05-1.65-1.36-.64-.31-1.35-.46-2.12-.46-.84,0-1.62.2-2.34.61-.72.4-1.27.95-1.67,1.63-.39.68-.59,1.45-.59,2.3,0,1.29.44,2.36,1.32,3.22.88.86,1.99,1.29,3.34,1.29,1.48,0,2.71-.58,3.7-1.73l.83.63c-.53.67-1.18,1.19-1.97,1.55-.79.37-1.66.55-2.63.55-1.84,0-3.3-.61-4.36-1.84-.89-1.04-1.34-2.29-1.34-3.76,0-1.54.54-2.84,1.62-3.89,1.08-1.05,2.44-1.58,4.07-1.58.98,0,1.87.19,2.67.58.79.39,1.44.94,1.95,1.64Z" fill="#191919"/>
      <path d="m153.93,71.07h1.05v4.42h5.37v-4.42h1.05v10.54h-1.05v-5.09h-5.37v5.09h-1.05v-10.54Z" fill="#191919"/>
      <path d="m165.01,81.62v-10.54h.23l7.02,8.08v-8.08h1.04v10.54h-.24l-6.96-7.98v7.98h-1.09Z" fill="#191919"/>
      <path d="m177.12,71.07h1.05v10.54h-1.05v-10.54Z" fill="#191919"/>
      <path d="m192.69,73.03l-.83.64c-.46-.6-1.01-1.05-1.65-1.36-.64-.31-1.35-.46-2.12-.46-.84,0-1.62.2-2.34.61-.72.4-1.27.95-1.67,1.63-.39.68-.59,1.45-.59,2.3,0,1.29.44,2.36,1.32,3.22.88.86,1.99,1.29,3.34,1.29,1.48,0,2.71-.58,3.7-1.73l.83.63c-.53.67-1.18,1.19-1.97,1.55-.79.37-1.66.55-2.63.55-1.84,0-3.3-.61-4.36-1.84-.89-1.04-1.34-2.29-1.34-3.76,0-1.54.54-2.84,1.62-3.89,1.08-1.05,2.44-1.58,4.07-1.58.98,0,1.87.19,2.67.58.79.39,1.44.94,1.95,1.64Z" fill="#191919"/>
      <path d="m199.61,71.07l4.92,10.54h-1.14l-1.66-3.47h-4.54l-1.64,3.47h-1.18l4.98-10.54h.26Zm-.13,2.24l-1.81,3.82h3.6l-1.8-3.82Z" fill="#191919"/>
      <path d="m207.55,71.07h1.05v9.52h4.06v1.02h-5.11v-10.54Z" fill="#191919"/>
      <path d="m219.78,79.65l.9-.54c.63,1.16,1.36,1.74,2.19,1.74.35,0,.69-.08,1-.25.31-.17.55-.39.71-.66.16-.28.24-.57.24-.88,0-.35-.12-.7-.36-1.04-.33-.47-.93-1.03-1.81-1.69-.88-.66-1.43-1.14-1.64-1.44-.37-.5-.56-1.03-.56-1.61,0-.46.11-.88.33-1.25.22-.38.53-.67.93-.89.4-.22.83-.33,1.3-.33.5,0,.96.12,1.39.37.43.25.89.7,1.37,1.36l-.86.65c-.4-.53-.73-.87-1.01-1.04-.28-.17-.58-.25-.91-.25-.42,0-.77.13-1.04.39s-.4.58-.4.95c0,.23.05.45.14.67.1.22.27.45.52.7.14.13.59.49,1.36,1.05.91.67,1.54,1.27,1.88,1.8.34.53.51,1.05.51,1.58,0,.76-.29,1.43-.87,1.99-.58.56-1.29.85-2.12.85-.64,0-1.22-.17-1.74-.51-.52-.34-1-.91-1.44-1.72Z" fill="#191919"/>
      <path d="m228.52,71.07h6.04v1.03h-4.99v3.3h4.94v1.03h-4.94v4.14h4.94v1.03h-6v-10.54Z" fill="#191919"/>
      <path d="m237.25,71.07h2.1c1.17,0,1.96.05,2.38.14.63.14,1.14.45,1.53.92.39.47.59,1.05.59,1.74,0,.57-.14,1.08-.41,1.51-.27.44-.66.76-1.16.99-.5.22-1.19.34-2.08.34l3.79,4.89h-1.3l-3.79-4.89h-.6v4.89h-1.05v-10.54Zm1.05,1.03v3.58h1.82c.7.01,1.22-.05,1.56-.19.34-.13.6-.35.79-.64.19-.29.28-.62.28-.99s-.1-.68-.29-.96c-.19-.29-.44-.5-.75-.62-.31-.12-.83-.19-1.55-.19h-1.86Z" fill="#191919"/>
      <path d="m245.79,71.07h1.15l3.49,8.14,3.55-8.14h1.15l-4.59,10.54h-.23l-4.52-10.54Z" fill="#191919"/>
      <path d="m257.95,71.07h1.05v10.54h-1.05v-10.54Z" fill="#191919"/>
      <path d="m273.53,73.03l-.83.64c-.46-.6-1.01-1.05-1.65-1.36-.64-.31-1.35-.46-2.12-.46-.84,0-1.62.2-2.34.61-.72.4-1.27.95-1.67,1.63-.39.68-.59,1.45-.59,2.3,0,1.29.44,2.36,1.32,3.22.88.86,1.99,1.29,3.34,1.29,1.48,0,2.71-.58,3.7-1.73l.83.63c-.53.67-1.18,1.19-1.97,1.55-.79.37-1.66.55-2.63.55-1.84,0-3.3-.61-4.36-1.84-.89-1.04-1.34-2.29-1.34-3.76,0-1.54.54-2.84,1.62-3.89,1.08-1.05,2.44-1.58,4.07-1.58.98,0,1.87.19,2.67.58.79.39,1.44.94,1.95,1.64Z" fill="#191919"/>
      <path d="m276.15,71.07h6.04v1.03h-4.99v3.3h4.94v1.03h-4.94v4.14h4.94v1.03h-6v-10.54Z" fill="#191919"/>
      <path d="m283.58,79.65l.9-.54c.63,1.16,1.36,1.74,2.19,1.74.35,0,.69-.08,1-.25.31-.17.55-.39.71-.66.16-.28.24-.57.24-.88,0-.35-.12-.7-.36-1.04-.33-.47-.93-1.03-1.81-1.69-.88-.66-1.43-1.14-1.64-1.44-.37-.5-.56-1.03-.56-1.61,0-.46.11-.88.33-1.25.22-.38.53-.67.93-.89.4-.22.83-.33,1.3-.33.5,0,.96.12,1.39.37.43.25.89.7,1.37,1.36l-.86.65c-.4-.53-.73-.87-1.01-1.04-.28-.17-.58-.25-.91-.25-.42,0-.77.13-1.04.39s-.4.58-.4.95c0,.23.05.45.14.67.1.22.27.45.52.7.14.13.59.49,1.36,1.05.91.67,1.54,1.27,1.88,1.8.34.53.51,1.05.51,1.58,0,.76-.29,1.43-.87,1.99-.58.56-1.29.85-2.12.85-.64,0-1.22-.17-1.74-.51-.52-.34-1-.91-1.44-1.72Z" fill="#191919"/>
      <path d="m307.78,73.03l-.83.64c-.46-.6-1.01-1.05-1.65-1.36-.64-.31-1.35-.46-2.12-.46-.84,0-1.62.2-2.34.61-.72.4-1.27.95-1.67,1.63-.39.68-.59,1.45-.59,2.3,0,1.29.44,2.36,1.32,3.22.88.86,1.99,1.29,3.34,1.29,1.48,0,2.71-.58,3.7-1.73l.83.63c-.53.67-1.18,1.19-1.97,1.55-.79.37-1.66.55-2.63.55-1.84,0-3.3-.61-4.36-1.84-.89-1.04-1.34-2.29-1.34-3.76,0-1.54.54-2.84,1.62-3.89,1.08-1.05,2.44-1.58,4.07-1.58.98,0,1.87.19,2.67.58.79.39,1.44.94,1.95,1.64Z" fill="#191919"/>
      <path d="m315.28,70.81c1.6,0,2.93.53,4.01,1.6,1.08,1.07,1.61,2.38,1.61,3.93s-.54,2.85-1.61,3.93c-1.07,1.08-2.38,1.61-3.93,1.61s-2.88-.53-3.96-1.6c-1.08-1.07-1.61-2.36-1.61-3.88,0-1.01.25-1.95.74-2.82s1.16-1.54,2-2.03c.85-.49,1.76-.73,2.75-.73Zm.05,1.02c-.78,0-1.52.2-2.22.61-.7.41-1.24.95-1.64,1.64-.39.69-.59,1.46-.59,2.3,0,1.25.43,2.31,1.3,3.17.87.86,1.92,1.29,3.14,1.29.82,0,1.58-.2,2.27-.6.7-.4,1.24-.94,1.63-1.63.39-.69.58-1.45.58-2.3s-.19-1.59-.58-2.27c-.39-.68-.94-1.22-1.65-1.63-.71-.41-1.46-.61-2.25-.61Z" fill="#191919"/>
      <path d="m329.74,71.07h1.05v9.52h4.06v1.02h-5.11v-10.54Z" fill="#191919"/>
      <path d="m337.43,71.07h1.05v9.52h4.06v1.02h-5.11v-10.54Z" fill="#191919"/>
      <path d="m354.77,73.03l-.83.64c-.46-.6-1.01-1.05-1.65-1.36-.64-.31-1.35-.46-2.12-.46-.84,0-1.62.2-2.34.61-.72.4-1.27.95-1.67,1.63-.39.68-.59,1.45-.59,2.3,0,1.29.44,2.36,1.32,3.22.88.86,1.99,1.29,3.34,1.29,1.48,0,2.71-.58,3.7-1.73l.83.63c-.53.67-1.18,1.19-1.97,1.55-.79.37-1.66.55-2.63.55-1.84,0-3.3-.61-4.36-1.84-.89-1.04-1.34-2.29-1.34-3.76,0-1.54.54-2.84,1.62-3.89,1.08-1.05,2.44-1.58,4.07-1.58.98,0,1.87.19,2.67.58.79.39,1.44.94,1.95,1.64Z" fill="#191919"/>
    </g>
  </g>
</svg>